<svg width="191" height="191" viewBox="0 0 191 191" fill="none" xmlns="http://www.w3.org/2000/svg">
<path d="M71.6249 79.5833C80.4155 79.5833 87.5416 72.4572 87.5416 63.6667C87.5416 54.8761 80.4155 47.75 71.6249 47.75C62.8344 47.75 55.7083 54.8761 55.7083 63.6667C55.7083 72.4572 62.8344 79.5833 71.6249 79.5833Z" stroke="#172C4B" stroke-width="8" stroke-linecap="round" stroke-linejoin="round"/>
<path d="M103.458 15.9166H71.6251C31.8334 15.9166 15.9167 31.8333 15.9167 71.625V119.375C15.9167 159.167 31.8334 175.083 71.6251 175.083H119.375C159.167 175.083 175.083 159.167 175.083 119.375V79.5833" stroke="#172C4B" stroke-width="8" stroke-linecap="round" stroke-linejoin="round"/>
<path d="M125.344 39.7916H169.115" stroke="#172C4B" stroke-width="8" stroke-linecap="round"/>
<path d="M147.229 61.6771V17.9062" stroke="#172C4B" stroke-width="8" stroke-linecap="round"/>
<path d="M21.249 150.811L60.4836 124.469C66.7707 120.251 75.8432 120.728 81.4936 125.583L84.1199 127.891C90.3274 133.223 100.355 133.223 106.562 127.891L139.669 99.4797C145.877 94.1476 155.904 94.1476 162.112 99.4797L175.084 110.621" stroke="#172C4B" stroke-width="8" stroke-linecap="round" stroke-linejoin="round"/>
</svg>
