<svg width="57" height="66" viewBox="0 0 57 66" fill="none" xmlns="http://www.w3.org/2000/svg">
<path d="M27.5621 64.9849C27.5621 62.47 27.5621 59.9551 27.5621 57.4341C26.1093 57.2083 24.7297 57.0618 23.3807 56.7688C11.5692 54.1806 2.57781 44.475 0.380322 32.4499C-1.49975 22.1278 3.57279 8.8818 15.9947 3.08286C25.6576 -1.4342 35.3265 -1.07405 44.379 4.73709C51.3926 9.23584 55.3176 16.042 56.6239 24.1666C57.924 32.224 55.8425 39.5368 50.5502 45.8485C46.7779 50.3472 42.3158 53.9059 36.7427 55.9569C36.3398 56.1034 35.9675 56.4208 35.6622 56.7382C33.1962 59.3203 30.7484 61.9146 28.3068 64.5088C28.1297 64.6919 28.0077 64.9239 27.8551 65.1375C27.7635 65.0826 27.6597 65.0338 27.5621 64.9849ZM31.9631 30.875C32.0425 30.8323 32.1279 30.7957 32.2073 30.7529C31.7861 29.9106 31.542 28.9034 30.9193 28.2563C26.1093 23.257 21.2321 18.331 16.361 13.3867C14.9387 11.94 12.6985 11.9033 11.2945 13.2524C9.86615 14.6258 9.87836 17.2872 11.1114 18.508C16.0558 23.4158 20.878 28.4517 25.743 33.4449C26.8906 34.623 28.264 34.9282 29.729 34.33C31.1086 33.7684 31.957 32.456 31.9631 30.875ZM46.7657 21.1145C44.2874 23.5928 41.9861 25.8696 39.7215 28.1892C39.4895 28.4272 39.3919 28.8729 39.3858 29.2269C39.3614 33.1824 39.3675 37.1379 39.3736 41.0933C39.3736 42.9368 41.1499 44.5422 43.1276 44.5239C45.0809 44.5056 46.7596 42.9307 46.7657 41.0933C46.7718 37.9802 46.7718 34.8671 46.7718 31.754C46.7657 28.293 46.7657 24.8319 46.7657 21.1145ZM10.1592 21.5784C10.1714 21.4991 10.1408 21.615 10.1408 21.7371C10.1408 28.3479 10.1286 34.9648 10.153 41.5756C10.1592 43.4434 11.734 44.9206 13.6141 44.945C15.4698 44.9634 17.0874 43.4862 17.1301 41.6244C17.2338 37.4431 17.2949 33.2617 17.3498 29.0804C17.3559 28.763 17.2216 28.354 17.008 28.1404C14.7312 25.9184 12.4238 23.7393 10.1592 21.5784ZM34.1973 30.2951C38.0612 26.3579 41.7176 22.5856 45.435 18.8743C46.5276 17.7877 46.8023 16.5486 46.5276 15.1385C46.2529 13.7346 45.4167 12.7152 44.0005 12.3245C42.6271 11.9461 41.4368 12.2269 40.393 13.3317C37.408 16.4937 34.356 19.5885 31.3344 22.7138C30.9132 23.1472 30.5042 23.5867 30.0831 24.0323C31.8105 25.8879 33.7272 27.5055 34.1973 30.2951Z" fill="#172C4B"/>
</svg>
