<svg width="114" height="131" viewBox="0 0 114 131" fill="none" xmlns="http://www.w3.org/2000/svg">
<path d="M70.6079 113.421C65.7577 118.528 60.9392 123.666 56.1264 128.802V128.795V128.765V128.735V128.706V128.676V128.647V128.617V128.587V128.558V128.528V128.498V128.469V128.439V128.409V128.38V128.35V128.32V128.291V128.261V128.232V128.202V128.172V128.143V128.113V128.083V128.054V128.024V127.994V127.965V127.935V127.906V127.876V127.846V127.817V127.787V127.757V127.728V127.698V127.668V127.639V127.609V127.579V127.55V127.52V127.491V127.461V127.431V127.402V127.372V127.342V127.313V127.283V127.253V127.224V127.194V127.165V127.135V127.105V127.076V127.046V127.016V126.987V126.957V126.927V126.898V126.868V126.838V126.809V126.779V126.75V126.72V126.69V126.661V126.631V126.601V126.572V126.542V126.512V126.483V126.453V126.423V126.394V126.364V126.335V126.305V126.275V126.246V126.216V126.186V126.157V126.127V126.097V126.068V126.038V126.008V125.979V125.949V125.92V125.89V125.86V125.831V125.801V125.771V125.742V125.712V125.682V125.653V125.623V125.593V125.564V125.534V125.505V125.475V125.445V125.416V125.386V125.356V125.327V125.297V125.267V125.238V125.208V125.178V125.149V125.119V125.089V125.06V125.03V125.001V124.971V124.941V124.912V124.882V124.852V124.823V124.793V124.763V124.734V124.704V124.674V124.645V124.615V124.585V124.556V124.526V124.497V124.467V124.437V124.408V124.378V124.348V124.319V124.289V124.259V124.23V124.2V124.17V124.141V124.111V124.081V124.052V124.022V123.992V123.963V123.933V123.904V123.874V123.844V123.815V123.785V123.755V123.726V123.696V123.666V123.637V123.607V123.577V123.548V123.518V123.488V123.459V123.429V123.399V123.37V123.34V123.31V123.281V123.251V123.221V123.192V123.162V123.132V123.103V123.073V123.044V123.014V122.984V122.955V122.925V122.895V122.866V122.836V122.806V122.777V122.747V122.717V122.688V122.658V122.628V122.599V122.569V122.539V122.51V122.48V122.45V122.421V122.391V122.361V122.332V122.302V122.272V122.243V122.213V122.183V122.154V122.124V122.094V122.065V122.035V122.005V121.976V121.946V121.916V121.887V121.857V121.827V121.798V121.768V121.738V121.709V121.679V121.649V121.62V121.59V121.56V121.531V121.501V121.471V121.442V121.412V121.382V121.353V121.323V121.293V121.264V121.234V121.204V121.175V121.145V121.115V121.086V121.056V121.026V120.997V120.967V120.937V120.908V120.878V120.848V120.819V120.789V120.759V120.73V120.7V120.67V120.641V120.611V120.581V120.552V120.522V120.492V120.463V120.433V120.403V120.374V120.344V120.314V120.284V120.255V120.225V120.195V120.166V120.136V120.106V120.077V120.047V120.017V119.988V119.958V119.928V119.899V119.869V119.839V119.81V119.78V119.75V119.721V119.691V119.661V119.631V119.602V119.572V119.542V119.513V119.483V119.453V119.424V119.394V119.364V119.335V119.305V119.275V119.246V119.216V119.186V119.156V119.127V119.097V119.067V119.038V119.008V118.978V118.949V118.919V118.889V118.86V118.83V118.8V118.77V118.741V118.711V118.681V118.652V118.622V118.592V118.563V118.533V118.503V118.473V118.444V118.414V118.384V118.355V118.325V118.295V118.266V118.236V118.206V118.176V118.147V118.117V118.087V118.058V118.028V117.998V117.969V117.939V117.909V117.879V117.85V117.82V117.79V117.761V117.731V117.701V117.672V117.642V117.612V117.582V117.553V117.523V117.493V117.464V117.434V117.404V117.374V117.345V117.315V117.285V117.256V117.226V117.196V117.166V117.137V117.107V117.077V117.048V117.018V116.988V116.958V116.929V116.899V116.869V116.84V116.81V116.78V116.75V116.721V116.691V116.661V116.632V116.602V116.572V116.542V116.513V116.483V116.453V116.423V116.394V116.364V116.334V116.305V116.275V116.245V116.215V116.186V116.156V116.126V116.096V116.067V116.037V116.007V115.978V115.948V115.918V115.888V115.859V115.829V115.799V115.769V115.74V115.71V115.68V115.65V115.621V115.591V115.561V115.532V115.502V114.647L55.2822 114.514C54.3029 114.36 53.3571 114.227 52.4337 114.097C50.5526 113.832 48.7652 113.581 46.9799 113.188C23.7643 108.078 6.0643 88.9023 1.74633 65.0873L0.7625 65.2657L1.74633 65.0873C-1.94687 44.721 8.02374 18.5596 32.41 7.1018L32.4101 7.10177C51.4378 -1.84009 70.417 -1.12082 88.2206 10.3632L88.2208 10.3633C101.973 19.2313 109.687 32.6598 112.263 48.7509L113.25 48.5928L112.263 48.7509C114.811 64.6647 110.736 79.0846 100.338 91.5591C92.8776 100.508 84.0847 107.541 73.1414 111.595L73.1405 111.595C72.1189 111.975 71.2453 112.749 70.6079 113.421Z" stroke="#172C4B" stroke-width="2"/>
<path d="M71.7499 44.005C71.6074 43.9813 71.4412 43.9813 71.2987 44.005C68.0212 43.8863 65.4087 41.2025 65.4087 37.8775C65.4087 34.4813 68.1399 31.75 71.5362 31.75C74.9324 31.75 77.6637 34.505 77.6637 37.8775C77.6399 41.2025 75.0274 43.8863 71.7499 44.005Z" stroke="#172C4B" stroke-width="3" stroke-linecap="round" stroke-linejoin="round"/>
<path d="M69.3037 61.2949C72.5574 61.8411 76.1437 61.2711 78.6612 59.5849C82.0099 57.3524 82.0099 53.6949 78.6612 51.4624C76.1199 49.7761 72.4862 49.2061 69.2324 49.7761" stroke="#172C4B" stroke-width="3" stroke-linecap="round" stroke-linejoin="round"/>
<path d="M43.1788 44.005C43.3213 43.9813 43.4875 43.9813 43.63 44.005C46.9075 43.8863 49.52 41.2025 49.52 37.8775C49.52 34.4813 46.7888 31.75 43.3925 31.75C39.9963 31.75 37.265 34.505 37.265 37.8775C37.2888 41.2025 39.9013 43.8863 43.1788 44.005Z" stroke="#172C4B" stroke-width="3" stroke-linecap="round" stroke-linejoin="round"/>
<path d="M45.625 61.2949C42.3713 61.8411 38.785 61.2711 36.2675 59.5849C32.9188 57.3524 32.9188 53.6949 36.2675 51.4624C38.8088 49.7761 42.4425 49.2061 45.6963 49.7761" stroke="#172C4B" stroke-width="3" stroke-linecap="round" stroke-linejoin="round"/>
<path d="M57.4999 61.7462C57.3574 61.7225 57.1912 61.7225 57.0487 61.7462C53.7712 61.6275 51.1587 58.9437 51.1587 55.6187C51.1587 52.2225 53.8899 49.4912 57.2862 49.4912C60.6824 49.4912 63.4137 52.2462 63.4137 55.6187C63.3899 58.9437 60.7774 61.6512 57.4999 61.7462Z" stroke="#172C4B" stroke-width="3" stroke-linecap="round" stroke-linejoin="round"/>
<path d="M50.5887 69.2275C47.24 71.46 47.24 75.1175 50.5887 77.35C54.3887 79.8912 60.6112 79.8912 64.4112 77.35C67.76 75.1175 67.76 71.46 64.4112 69.2275C60.635 66.71 54.3887 66.71 50.5887 69.2275Z" stroke="#172C4B" stroke-width="3" stroke-linecap="round" stroke-linejoin="round"/>
</svg>
