<svg width="204" height="111" viewBox="0 0 204 111" fill="none" xmlns="http://www.w3.org/2000/svg">
<path d="M98.6431 232.454C98.6431 223.458 98.6431 214.462 98.6431 205.445C93.4437 204.637 88.5064 204.113 83.6784 203.065C41.4056 193.807 9.22585 159.089 1.36115 116.075C-5.36754 79.1521 12.7868 31.7706 57.2442 11.0275C91.8271 -5.1302 126.432 -3.84195 158.83 16.9448C183.931 33.037 197.979 57.3828 202.654 86.4449C207.307 115.267 199.857 141.425 180.917 164.002C167.416 180.094 151.446 192.824 131.5 200.16C130.058 200.685 128.726 201.82 127.633 202.955C118.807 212.191 110.047 221.471 101.308 230.751C100.675 231.406 100.238 232.236 99.6918 233C99.3641 232.803 98.9927 232.629 98.6431 232.454ZM114.394 110.441C114.678 110.289 114.984 110.157 115.268 110.005C113.761 106.991 112.887 103.389 110.659 101.074C93.4437 83.1915 75.9884 65.5709 58.555 47.8847C53.4648 42.7098 45.4472 42.5788 40.4225 47.4043C35.3104 52.3171 35.3541 61.8371 39.7671 66.2041C57.4627 83.7592 74.7213 101.773 92.1329 119.634C96.24 123.848 101.155 124.94 106.399 122.8C111.336 120.791 114.373 116.097 114.394 110.441ZM167.372 75.5275C158.502 84.3924 150.266 92.5368 142.161 100.834C141.331 101.686 140.981 103.28 140.96 104.546C140.872 118.695 140.894 132.844 140.916 146.993C140.916 153.587 147.273 159.329 154.351 159.264C161.342 159.198 167.35 153.565 167.372 146.993C167.394 135.857 167.394 124.721 167.394 113.586C167.372 101.205 167.372 88.8249 167.372 75.5275ZM36.3591 77.187C36.4028 76.9031 36.2935 77.318 36.2935 77.7547C36.2935 101.402 36.2498 125.071 36.3372 148.718C36.3591 155.399 41.9954 160.683 48.7241 160.771C55.3654 160.836 61.1547 155.552 61.3077 148.892C61.679 133.936 61.8975 118.979 62.0941 104.022C62.116 102.887 61.6353 101.424 60.8707 100.659C52.722 92.7115 44.4641 84.9165 36.3591 77.187ZM122.39 108.367C136.219 94.2836 149.305 80.7897 162.609 67.5141C166.52 63.6276 167.503 59.1951 166.52 54.1513C165.537 49.1293 162.544 45.4828 157.475 44.0854C152.56 42.7317 148.3 43.7361 144.564 47.6882C133.881 58.9986 122.958 70.0688 112.144 81.2482C110.637 82.7985 109.173 84.3706 107.666 85.9645C113.848 92.6023 120.708 98.3885 122.39 108.367Z" fill="#172C4B"/>
</svg>
