<svg width="61" height="61" viewBox="0 0 61 61" fill="none" xmlns="http://www.w3.org/2000/svg">
<path d="M37.91 32.1528V39.9333C37.91 46.4313 35.3165 49.0248 28.8185 49.0248H21.0665C14.597 49.0248 11.975 46.4313 11.975 39.9333V32.1528C11.975 25.6833 14.5685 23.0898 21.0665 23.0898H28.847C35.3165 23.0898 37.91 25.6833 37.91 32.1528Z" stroke="#172C4B" stroke-width="3" stroke-linecap="round" stroke-linejoin="round"/>
<path d="M49.025 21.0381V28.8186C49.025 35.3166 46.4315 37.9101 39.9335 37.9101H37.91V32.1531C37.91 25.6836 35.3165 23.0901 28.8185 23.0901H23.09V21.0381C23.09 14.5401 25.6835 11.9751 32.1815 11.9751H39.962C46.4315 11.9751 49.025 14.5686 49.025 21.0381Z" stroke="#172C4B" stroke-width="3" stroke-linecap="round" stroke-linejoin="round"/>
<path d="M59 39.0498C59 50.0793 50.0795 58.9998 39.05 58.9998L42.0425 54.0123" stroke="#172C4B" stroke-width="3" stroke-linecap="round" stroke-linejoin="round"/>
<path d="M2 21.95C2 10.9205 10.9205 2 21.95 2L18.9575 6.9875" stroke="#172C4B" stroke-width="3" stroke-linecap="round" stroke-linejoin="round"/>
</svg>
