<svg width="150" height="172" viewBox="0 0 150 172" fill="none" xmlns="http://www.w3.org/2000/svg">
<path d="M72.5317 171.013C72.5317 164.395 72.5317 157.777 72.5317 151.142C68.7086 150.548 65.0782 150.163 61.5282 149.391C30.4453 142.581 6.78372 117.04 1.00085 85.3944C-3.94672 58.231 9.40207 23.3731 42.0913 8.1128C67.5199 -3.77421 92.9645 -2.82646 116.787 12.466C135.244 24.3048 145.573 42.2157 149.01 63.5962C152.432 84.8001 146.954 104.044 133.027 120.654C123.1 132.493 111.357 141.858 96.6913 147.255C95.6311 147.641 94.6512 148.476 93.848 149.311C87.3583 156.106 80.9169 162.933 74.4915 169.76C74.0256 170.242 73.7044 170.852 73.3028 171.415C73.0618 171.27 72.7887 171.142 72.5317 171.013ZM84.1135 81.25C84.3223 81.1376 84.5472 81.0412 84.7561 80.9288C83.6477 78.712 83.0051 76.0615 81.3667 74.3588C68.7086 61.2028 55.8738 48.2395 43.0551 35.228C39.3123 31.421 33.417 31.3246 29.7224 34.8746C25.9636 38.4889 25.9957 45.4926 29.2405 48.7053C42.252 61.6204 54.9422 74.8728 67.7448 88.0128C70.7647 91.113 74.379 91.9162 78.2343 90.342C81.8646 88.8641 84.0975 85.4105 84.1135 81.25ZM123.068 55.5645C116.546 62.0862 110.49 68.0779 104.53 74.1821C103.92 74.8086 103.663 75.9812 103.647 76.9129C103.583 87.322 103.599 97.7312 103.615 108.14C103.615 112.992 108.289 117.216 113.494 117.168C118.634 117.12 123.052 112.975 123.068 108.14C123.084 99.948 123.084 91.7556 123.084 83.5632C123.068 74.4552 123.068 65.3471 123.068 55.5645ZM26.7346 56.7853C26.7667 56.5765 26.6864 56.8817 26.6864 57.2029C26.6864 74.5997 26.6543 92.0126 26.7185 109.409C26.7346 114.325 30.879 118.212 35.8266 118.276C40.7099 118.325 44.9667 114.437 45.0792 109.538C45.3522 98.5344 45.5129 87.5309 45.6574 76.5274C45.6735 75.692 45.3201 74.6158 44.7579 74.0536C38.7662 68.2064 32.6942 62.4718 26.7346 56.7853ZM89.9928 79.724C100.161 69.363 109.783 59.4358 119.566 49.6691C122.441 46.8098 123.164 43.5489 122.441 39.8383C121.718 36.1437 119.518 33.461 115.791 32.433C112.176 31.437 109.044 32.176 106.297 35.0835C98.4422 43.4044 90.4104 51.5486 82.459 59.7731C81.3506 60.9136 80.2743 62.0702 79.1659 63.2428C83.7119 68.1261 88.7559 72.383 89.9928 79.724Z" fill="white"/>
</svg>
